<svg width="247" height="173" viewBox="0 0 247 173" fill="none" xmlns="http://www.w3.org/2000/svg">
<g clip-path="url(#clip0_716_18)">
<path d="M117.342 1.90039V2.17188C146.475 2.17188 173.541 18.6028 183.841 46.6953C194.48 75.7137 183.163 108.815 157.521 125.878C151.261 130.044 143.36 134.181 135.803 135.199C137.21 135.748 139.26 134.97 140.689 134.621C145.064 133.553 149.377 132.024 153.449 130.1C171.38 121.631 184.425 105.629 189.713 86.6035C198.311 55.6706 182.365 21.3567 153.178 7.95686C141.38 2.54059 130.033 1.89901 117.342 1.90039Z" fill="#BF9101"/>
<path d="M177.883 104.522H177.611C173.218 112.412 166.311 119.458 158.879 124.518C146.903 132.671 132.47 137.456 117.885 136.818C77.3509 135.043 46.7465 96.1444 54.6831 56.4688C56.3633 48.0696 59.7495 39.9778 64.4928 32.8497C70.3328 24.0736 78.0294 16.7077 87.207 11.4787C97.8565 5.41093 109.73 2.4238 121.957 2.44342C132.151 2.45977 142.894 5.57184 151.82 10.4003C155.752 12.527 159.181 15.2985 162.951 17.6465C161.568 14.9239 157.124 12.8479 154.535 11.3618C145.709 6.29497 135.917 3.16402 125.758 2.41932C88.3868 -0.320075 54.6663 28.7019 53.0106 66.5137C51.2902 105.804 85.6829 140.726 125.486 136.874C141.68 135.307 156.748 128.928 168.381 117.281C171.604 114.054 176.806 109.103 177.883 104.522Z" fill="#D9A509"/>
<path d="M116.527 2.55854C100.644 4.64401 86.4323 9.49277 74.4474 20.6571C68.5918 26.1117 63.8289 32.7592 60.2632 39.9082C41.42 77.6868 63.3995 124.598 104.311 134.826C112.496 136.872 120.94 137.306 129.287 136.209C161.127 132.022 186.24 104.576 187.646 72.4863C189.064 40.0982 165.704 10.2166 133.902 3.85499C128.36 2.74639 122.178 1.81667 116.527 2.55854Z" fill="#E9C34F"/>
<path d="M116.256 11.7891C103.757 13.4302 92.2432 17.1013 82.4353 25.4418C77.1699 29.9198 72.9471 35.5338 69.5984 41.5371C56.5528 64.9244 61.9349 96.396 82.4353 113.83C94.7007 124.26 111.448 129.161 127.387 127.249C136.141 126.198 144.668 123.23 152.092 118.451C180.06 100.445 187.245 59.6088 166.196 33.4458C158.792 24.2444 148.683 17.5709 137.432 14.1105C130.857 12.0884 123.13 10.8864 116.256 11.7891Z" fill="#D7A301"/>
<path d="M118.156 13.9609C106.893 15.4404 96.536 18.569 87.3672 25.6121C81.9074 29.8059 77.3754 35.1678 73.7482 40.9941C59.2527 64.2779 65.0724 95.7058 86.2362 113.013C98.516 123.056 114.767 127.289 130.373 125.077C138.113 123.98 145.45 121.01 152.092 116.954C157.393 113.717 162.049 109.388 165.88 104.521C184.952 80.2988 180.53 43.0821 155.35 24.8205C150.023 20.9572 144.036 17.9147 137.703 16.0965C131.59 14.3413 124.521 13.1247 118.156 13.9609Z" fill="#E9C34F"/>
<path d="M177.883 34.75C180.179 41.0588 183.775 46.5821 185.516 53.2109C188.867 65.9729 188.077 79.3334 183.762 91.7617C182.214 96.2189 179.474 100.15 177.883 104.521C181.148 101.724 182.973 95.4792 184.308 91.4902C188.866 77.8663 189.228 62.8494 184.76 49.1387C183.332 44.7585 181.474 37.8265 177.883 34.75Z" fill="#D9A505"/>
<path d="M120.6 41.5371C121.496 45.3547 124.805 49.4088 126.814 52.7834C129.06 56.5562 130.809 60.971 133.631 64.3418C134.01 62.379 132.212 60.269 131.242 58.6406C128.84 54.608 126.63 50.4622 124.237 46.4238C123.321 44.8794 122.404 42.1015 120.6 41.5371Z" fill="#BF8F01"/>
<path d="M120.328 41.8086L111.679 57.2832L108.111 64.0703L107.568 63.5273C105.908 64.439 103.01 62.926 101.324 62.4343C96.5499 61.0414 90.5224 58.5128 85.5781 58.3691V59.1836C87.684 60.3787 88.6603 64.3991 89.7174 66.5137L98.4049 83.8887C99.306 85.6908 100.372 89.5038 102.04 90.6682C103.054 91.3759 105.296 90.9473 106.482 90.9473C110.299 90.9473 114.074 90.6744 117.885 90.6758C123.116 90.6777 128.379 90.9473 133.631 90.9473C135.321 90.9473 138.227 91.509 139.769 90.7836C141.689 89.8801 143.218 84.6705 144.152 82.8027C146.858 77.3896 149.386 71.8915 152.162 66.5137C153.5 63.9205 155.644 60.9814 156.164 58.0977C155.203 58.2236 153.594 58.3884 153.449 59.4551C150.861 58.9963 148.042 60.323 145.576 61.0772C141.546 62.31 137.421 63.2048 133.359 64.3418C132.509 61.4521 130.255 58.765 128.773 56.1549C126.194 51.6138 123.937 45.5801 120.328 41.8086Z" fill="#D7A301"/>
<path d="M84.7637 57.2832C85.7798 58.8958 89.1237 59.236 90.8927 59.7483C96.3045 61.3153 101.988 63.2499 107.568 64.0703C106.518 62.6844 103.245 62.3298 101.596 61.8604C96.3121 60.3564 90.2544 57.5341 84.7637 57.2832Z" fill="#BF8F01"/>
<path d="M156.436 57.8262C152.618 65.8453 148.531 73.7694 144.557 81.7168C143.421 83.9891 141.924 89.2934 139.769 90.6682C137.625 92.0356 131.821 90.9473 129.287 90.9473H101.596V91.2188C111.111 91.2188 120.599 91.4902 130.102 91.4902H137.432C138.323 91.4902 139.743 91.7509 140.517 91.2111C142.695 89.69 144.185 84.3619 145.372 81.9883C149.322 74.0873 153.856 66.2509 157.25 58.0977L156.436 57.8262Z" fill="#BF9101"/>
<path d="M85.5781 59.1836C90.0375 69.8945 95.7482 80.9287 101.596 90.9473H101.867C101.027 88.0329 99.217 85.2409 97.862 82.5312L89.9889 66.7852C89.0078 64.8231 87.7345 59.9201 85.5781 59.1836Z" fill="#DFB123"/>
<path d="M112.998 90.6758V90.9473H120.6L112.998 90.6758Z" fill="#E3B735"/>
<path d="M101.596 91.2188V91.4902H121.143L114.898 91.2188H101.596Z" fill="#D9AD25"/>
</g>
<path d="M15.6194 120.225L15.3953 117.16C13.5275 116.918 12.0435 116.659 10.9431 116.385C10.4874 116.212 10.0451 115.59 9.61605 114.519C9.18699 113.448 8.9258 112.562 8.83248 111.861L9.0962 111.274C10.9 111.519 12.8916 111.66 15.0711 111.697C14.4763 105.124 13.3313 97.645 11.636 89.2605C10.6688 89.1087 9.27933 88.8144 7.46752 88.3776C6.87601 88.018 6.37106 87.4305 5.95268 86.6153C5.59557 85.7334 5.40901 85.1006 5.39299 84.717C5.37697 84.3333 5.4329 84.1388 5.56079 84.1335C6.78107 84.2106 8.54488 84.2651 10.8522 84.2969L17.3741 79.4125L19.932 80.843C20.2546 82.4309 20.4611 83.5433 20.5518 84.1801C30.0688 83.5264 37.7699 81.5714 43.6552 78.315L45.3899 80.7408L42.5691 89.1218C38.0531 89.8868 34.0686 90.3415 30.6156 90.4857C27.1626 90.6299 24.1199 90.6288 21.4876 90.4825C21.8156 93.7357 22.0397 96.801 22.1598 99.6785C22.2773 102.492 22.3123 106.398 22.2648 111.396C28.1983 110.828 33.5242 109.517 38.2426 107.462L39.1739 109.057L36.4769 115.799C32.6696 116.663 28.5918 117.185 24.2436 117.367L22.0375 117.459C21.6519 125.098 20.7962 134.518 19.4703 145.719C19.0441 146.249 18.3261 146.695 17.3163 147.058C16.3732 147.482 15.5499 147.708 14.8465 147.737C14.2071 147.764 13.8807 147.618 13.8673 147.298L14.111 146.231C15.5732 139.828 16.076 131.16 15.6194 120.225ZM51.1516 74.6391L58.9771 77.9635C59.8781 82.666 60.4448 87.7988 60.6771 93.362C60.9067 98.8612 60.8326 104.757 60.4549 111.051C59.6407 123.768 58.1803 134.814 56.0737 144.19C55.7087 144.654 55.0533 145.066 54.1075 145.425C53.1617 145.785 52.401 145.977 51.8255 146.001C51.25 146.025 50.9556 145.877 50.9423 145.558C53.4136 132.643 54.3889 119.951 53.8683 107.482C53.3476 95.0132 51.6641 84.6104 48.8178 76.2739L51.1516 74.6391ZM83.3119 98.8544C83.5199 100.767 83.6666 102.747 83.7521 104.793C84.2167 115.92 82.7777 128.246 79.4352 141.774C78.5774 142.706 77.3811 143.204 75.8465 143.269C75.5267 143.282 75.3016 143.259 75.171 143.201C75.1044 143.139 75.1004 143.043 75.159 142.913C76.3118 133.705 76.728 125.264 76.4076 117.591C76.0872 109.917 74.9995 103.045 73.1446 96.9729L75.3865 95.4381L83.3119 98.8544ZM78.9828 89.5229C77.3842 89.5896 76.1146 89.0982 75.174 88.0485C74.2973 86.9962 73.8243 85.6387 73.7549 83.9762C73.6854 82.3136 74.3607 80.8442 75.7807 79.5678C77.198 78.2275 79.3054 77.3068 82.103 76.8056C84.088 78.3241 85.1273 80.2024 85.2208 82.4405C85.3116 84.6146 84.7109 86.3371 83.4188 87.6081C82.124 88.8152 80.6454 89.4535 78.9828 89.5229ZM95.9553 94.5792L103.789 98.0954C104.613 102.481 105.09 106.24 105.221 109.373C105.349 112.443 105.408 114.618 105.397 115.9C107.746 109.268 110.721 103.795 114.32 99.4812C117.983 95.1646 121.349 92.9423 124.418 92.8141C130.237 92.5711 133.298 96.0625 133.599 103.288C133.877 109.938 131.864 116.94 127.559 124.294C125.406 127.972 122.285 131.465 118.196 134.774C114.17 138.081 109.478 140.775 104.121 142.857C103.354 150.575 102.232 158.213 100.754 165.769C99.712 166.901 98.3919 167.501 96.7932 167.568C96.2817 167.589 96.0192 167.44 96.0059 167.12C98.3253 153.636 99.2233 140.627 98.7 128.094C98.1766 115.561 96.4851 104.966 93.6255 96.3099L95.9553 94.5792ZM105.107 131.958L105.011 131.962L104.664 137.453C111.532 134.732 116.654 130.835 120.029 125.762C123.468 120.686 125.092 115.846 124.9 111.242C124.707 106.638 123.013 104.403 119.816 104.536C117.258 104.643 114.543 107.127 111.671 111.987C108.8 116.847 106.611 123.504 105.107 131.958ZM179.978 94.8178C180.186 96.7308 180.332 98.7104 180.418 100.757C180.882 111.883 179.443 124.21 176.101 137.737C175.243 138.67 174.047 139.168 172.512 139.232C172.192 139.245 171.967 139.223 171.837 139.164C171.77 139.103 171.766 139.007 171.825 138.876C172.978 129.668 173.394 121.228 173.073 113.554C172.753 105.881 171.665 99.0083 169.81 92.9364L172.052 91.4015L179.978 94.8178ZM175.649 85.4863C174.05 85.5531 172.78 85.0616 171.84 84.0119C170.963 82.9596 170.49 81.6022 170.421 79.9396C170.351 78.277 171.026 76.8076 172.446 75.5312C173.864 74.1909 175.971 73.2702 178.769 72.7691C180.754 74.2876 181.793 76.1658 181.887 78.4039C181.977 80.578 181.377 82.3006 180.085 83.5716C178.79 84.7786 177.311 85.4169 175.649 85.4863ZM216.712 92.2269L214.115 99.0612C211.009 99.8315 207.826 100.317 204.568 100.517C204.063 117.577 202.977 129.921 201.31 137.549C200.58 138.476 199.256 138.98 197.337 139.06C196.89 139.079 196.662 138.992 196.654 138.8C197.682 129.662 198.016 120.808 197.659 112.239C197.528 109.106 197.27 105.241 196.886 100.645C193.481 100.403 190.809 100.066 188.869 99.635C188.477 99.4592 188.035 98.8372 187.542 97.7688C187.11 96.6338 186.849 95.7479 186.759 95.1112L187.118 94.5196C189.633 94.9271 192.713 95.0547 196.358 94.9025C195.681 87.8846 195.132 83.1674 194.71 80.7509L196.944 79.0242L204.886 82.8242L204.779 94.0704C208.152 93.5452 211.789 92.4325 215.689 90.7323L216.712 92.2269ZM226.036 114.225C225.291 96.3846 226.198 81.2937 228.757 68.9521L231.295 67.5971L239.257 71.8766C237.267 76.3796 235.465 83.0846 233.851 91.9917C232.301 100.896 231.399 109.197 231.144 116.894C230.217 117.702 229.05 118.135 227.643 118.194C226.684 118.234 226.148 116.911 226.036 114.225ZM232.395 123.856C229.281 124.435 226.891 125.495 225.226 127.038C223.558 128.517 222.764 130.216 222.844 132.134C222.922 133.988 223.497 135.502 224.571 136.674C225.645 137.846 227.109 138.393 228.964 138.316C230.818 138.238 232.485 137.496 233.963 136.089C235.444 134.746 236.132 132.796 236.025 130.238C235.915 127.617 234.705 125.489 232.395 123.856Z" fill="black"/>
<defs>
<clipPath id="clip0_716_18">
<rect width="139" height="139" fill="white" transform="translate(53)"/>
</clipPath>
</defs>
</svg>
